<svg width="101" height="101" viewBox="0 0 101 101" fill="none" xmlns="http://www.w3.org/2000/svg">
<path d="M100.955 45.9673V92.8748C100.951 94.3391 100.543 95.7755 99.7731 97.0335C99.0034 98.2915 97.9004 99.3248 96.5796 100.025C95.3684 100.675 94.0042 101.007 92.6213 100.989H67.6213C66.5162 100.989 65.4564 100.561 64.675 99.8003C63.8936 99.0395 63.4546 98.0077 63.4546 96.9317V72.5905C63.4546 71.5145 63.0156 70.4827 62.2342 69.7218C61.4528 68.961 60.393 68.5336 59.288 68.5336H42.6213C41.5162 68.5336 40.4564 68.961 39.675 69.7218C38.8936 70.4827 38.4547 71.5145 38.4547 72.5905V96.9317C38.4547 98.0077 38.0157 99.0395 37.2343 99.8003C36.4529 100.561 35.3931 100.989 34.288 100.989H9.28802C8.10586 100.993 6.93645 100.751 5.85841 100.278C4.78037 99.8061 3.81869 99.1145 3.03802 98.2502C1.68332 96.6918 0.944532 94.7137 0.954693 92.672V45.9673C0.955061 44.8415 1.19604 43.7281 1.66231 42.6979C2.12857 41.6677 2.80992 40.7433 3.66302 39.9834L45.3296 3.1166C46.8659 1.74821 48.8725 0.989319 50.9546 0.989319C53.0367 0.989319 55.0434 1.74821 56.5796 3.1166L98.2463 39.9834C99.0994 40.7433 99.7807 41.6677 100.247 42.6979C100.713 43.7281 100.954 44.8415 100.955 45.9673Z" fill="white"/>
</svg>
