<svg width="39" height="44" viewBox="0 0 39 44" fill="none" xmlns="http://www.w3.org/2000/svg">
<path d="M13.1315 0.975266L11.1905 1.94861C11.1905 5.0111 11.267 10.3492 12.5196 14.4701C18.0938 15.8278 20.9048 15.8278 26.4791 14.4701C27.7508 10.3587 27.8081 6.19575 27.8177 1.94861L25.8672 0.975266C25.4465 1.52409 24.7485 2.41329 23.7828 3.51571C23.0944 4.29591 22.3677 5.07994 21.6697 5.69569C21.3255 6.00357 20.9909 6.26937 20.6562 6.47685C20.312 6.6872 19.9774 6.86887 19.4993 6.86887C19.0213 6.86887 18.6866 6.6872 18.3424 6.47685C18.0078 6.26937 17.6731 6.00357 17.3289 5.69569C16.6309 5.07994 15.9043 4.29591 15.2159 3.51571C14.2502 2.41329 13.5522 1.52409 13.1315 0.975266ZM12.3092 16.1816L0.500977 39.8076C0.527748 39.9128 0.577467 40.0275 0.707501 40.171C0.898728 40.3909 1.24102 40.6586 1.72196 40.9072C2.68574 41.4235 4.18113 41.892 5.99874 42.2649C9.63204 43.0107 14.5752 43.3931 19.4993 43.3931C24.4234 43.3931 29.3666 43.0107 32.9999 42.2649C34.8166 41.892 36.3177 41.4235 37.2738 40.9072C37.7615 40.6586 38.0961 40.3909 38.2873 40.171C38.4212 40.0275 38.469 39.9128 38.4977 39.8076L26.6894 16.1816C21.1439 17.5106 17.8548 17.5106 12.3092 16.1816Z" fill="white"/>
</svg>
