<svg width="71" height="71" viewBox="0 0 71 71" fill="none" xmlns="http://www.w3.org/2000/svg">
<mask id="mask0_6_146" style="mask-type:alpha" maskUnits="userSpaceOnUse" x="3" y="11" width="64" height="49">
<path d="M8.84375 51.6553V57.4886M61.3438 51.6553V57.4886M11.7604 18.1136C11.7604 16.9533 12.2214 15.8405 13.0418 15.02C13.8623 14.1995 14.9751 13.7386 16.1354 13.7386H54.0521C55.2124 13.7386 56.3252 14.1995 57.1457 15.02C57.9661 15.8405 58.4271 16.9533 58.4271 18.1136V34.1553H11.7604V18.1136Z" stroke="white" stroke-width="4" stroke-linecap="round" stroke-linejoin="round"/>
<path d="M29.2604 26.8636H20.5104C19.3501 26.8636 18.2373 27.3245 17.4168 28.145C16.5963 28.9655 16.1354 30.0783 16.1354 31.2386V34.1553H33.6354V31.2386C33.6354 30.0783 33.1744 28.9655 32.354 28.145C31.5335 27.3245 30.4207 26.8636 29.2604 26.8636ZM49.677 26.8636H40.927C39.7667 26.8636 38.6539 27.3245 37.8334 28.145C37.013 28.9655 36.552 30.0783 36.552 31.2386V34.1553H54.052V31.2386C54.052 30.0783 53.5911 28.9655 52.7706 28.145C51.9502 27.3245 50.8374 26.8636 49.677 26.8636Z" fill="white" stroke="white" stroke-width="4" stroke-linecap="round" stroke-linejoin="round"/>
<path d="M5.92706 38.5303C5.92706 37.37 6.388 36.2572 7.20847 35.4367C8.02894 34.6162 9.14174 34.1553 10.3021 34.1553H59.8854C61.0457 34.1553 62.1585 34.6162 62.979 35.4367C63.7995 36.2572 64.2604 37.37 64.2604 38.5303V51.6553H5.92706V38.5303Z" stroke="white" stroke-width="4" stroke-linecap="round" stroke-linejoin="round"/>
</mask>
<g mask="url(#mask0_6_146)">
<path d="M0.09375 0.613602H70.0938V70.6136H0.09375V0.613602Z" fill="white"/>
</g>
</svg>
