<svg width="54" height="43" viewBox="0 0 54 43" fill="none" xmlns="http://www.w3.org/2000/svg">
<path d="M26.0839 25.5791L23.3696 28.2934L26.0781 33.7104L28.743 30.8975L26.0839 25.5791ZM27.8111 37.1763L30.3487 42.2519L33.0138 39.4388L30.476 34.3633L27.8111 37.1763ZM48.631 15.1997L45.9992 17.9778L51.0546 20.3957L53.6866 17.6175L48.631 15.1997ZM37.6692 13.9938L42.5469 16.3267L45.1788 13.5486L40.4 11.263L37.6692 13.9938ZM33.7068 30.9529L36.9528 35.2809L39.4935 32.5992L36.2475 28.2711L33.7068 30.9529ZM34.0309 25.3158L30.7379 20.9251L28.1368 23.5262L31.4903 27.9975L34.0309 25.3158ZM32.9054 18.7576L37.08 22.0973L39.5934 19.4443L35.4964 16.1666L32.9054 18.7576ZM39.9336 24.3802L44.1126 27.7234L46.6259 25.0703L42.447 21.7273L39.9336 24.3802ZM38.3616 3.59944L35.3754 6.5855L32.5624 3.77253C31.383 2.5931 29.9828 1.65752 28.4418 1.01922C26.9008 0.380915 25.2492 0.0523834 23.5812 0.0523834C21.9132 0.0523834 20.2616 0.380915 18.7206 1.01922C17.1796 1.65752 15.7794 2.5931 14.6 3.77253C14.561 3.81134 14.5234 3.85094 14.4851 3.8902C13.1563 2.95403 11.5958 2.40086 9.97396 2.29107C8.35215 2.18128 6.73133 2.51908 5.28841 3.26761C3.84549 4.01615 2.6359 5.14665 1.79165 6.53574C0.947403 7.92483 0.500936 9.51913 0.500977 11.1447V38.5724H4.14266V11.1447C4.14263 10.191 4.40327 9.25545 4.89638 8.43916C5.3895 7.62287 6.09635 6.95689 6.94052 6.5132C7.7847 6.06951 8.73408 5.86498 9.68606 5.92173C10.638 5.97848 11.5564 6.29435 12.3419 6.83518C11.082 9.23541 10.6216 11.9753 11.0278 14.6555C11.434 17.3356 12.6855 19.8161 14.6 21.7352L17.4128 24.5481L14.6907 27.2704L16.9667 29.5464L40.6376 5.87549L38.3616 3.59944ZM19.7343 21.7195L17.175 19.1602C15.4924 17.4578 14.5519 15.1587 14.559 12.7651C14.566 10.3715 15.5199 8.07797 17.2124 6.38542C18.9049 4.69286 21.1984 3.73885 23.592 3.73175C25.9856 3.72466 28.2847 4.66505 29.9872 6.34754L32.5465 8.90696L19.7343 21.7195Z" fill="white"/>
</svg>
