<svg width="58" height="52" viewBox="0 0 58 52" fill="none" xmlns="http://www.w3.org/2000/svg">
<path d="M6.28408 0.887527C3.16376 0.887527 0.610779 3.44051 0.610779 6.56082V15.0708H57.3438V6.56082C57.3438 5.05617 56.746 3.61315 55.6821 2.5492C54.6181 1.48525 53.1751 0.887527 51.6705 0.887527H6.28408ZM23.304 6.56082H34.6506V9.39747H23.304V6.56082ZM0.610779 17.9074V32.0907H57.3438V17.9074H0.610779ZM23.304 23.5807H34.6506V26.4174H23.304V23.5807ZM0.610779 34.9273V43.4373C0.610779 44.9419 1.2085 46.3849 2.27245 47.4489C3.3364 48.5128 4.77942 49.1105 6.28408 49.1105V51.9472H11.9574V49.1105H45.9972V51.9472H51.6705V49.1105C54.8191 49.1105 57.3438 46.5859 57.3438 43.4373V34.9273H0.610779ZM23.304 40.6006H34.6506V43.4373H23.304V40.6006Z" fill="white"/>
</svg>
