<svg width="31" height="30" viewBox="0 0 31 30" fill="none" xmlns="http://www.w3.org/2000/svg">
<path d="M12.999 18.75L19.4865 15L12.999 11.25V18.75ZM27.449 8.9625C27.6115 9.55 27.724 10.3375 27.799 11.3375C27.8865 12.3375 27.924 13.2 27.924 13.95L27.999 15C27.999 17.7375 27.799 19.75 27.449 21.0375C27.1365 22.1625 26.4115 22.8875 25.2865 23.2C24.699 23.3625 23.624 23.475 21.974 23.55C20.349 23.6375 18.8615 23.675 17.4865 23.675L15.499 23.75C10.2615 23.75 6.99902 23.55 5.71152 23.2C4.58652 22.8875 3.86152 22.1625 3.54902 21.0375C3.38652 20.45 3.27402 19.6625 3.19902 18.6625C3.11152 17.6625 3.07402 16.8 3.07402 16.05L2.99902 15C2.99902 12.2625 3.19902 10.25 3.54902 8.9625C3.86152 7.8375 4.58652 7.1125 5.71152 6.8C6.29902 6.6375 7.37402 6.525 9.02402 6.45C10.649 6.3625 12.1365 6.325 13.5115 6.325L15.499 6.25C20.7365 6.25 23.999 6.45 25.2865 6.8C26.4115 7.1125 27.1365 7.8375 27.449 8.9625V8.9625Z" fill="white"/>
</svg>
