<svg width="31" height="31" viewBox="0 0 31 31" fill="none" xmlns="http://www.w3.org/2000/svg">
<path d="M10.7588 15.8218C10.7588 16.7712 11.0404 17.6992 11.5678 18.4885C12.0952 19.2779 12.8449 19.8931 13.722 20.2564C14.599 20.6197 15.5642 20.7148 16.4953 20.5296C17.4264 20.3444 18.2817 19.8872 18.953 19.2159C19.6242 18.5446 20.0814 17.6894 20.2666 16.7582C20.4518 15.8271 20.3568 14.862 19.9935 13.9849C19.6302 13.1078 19.0149 12.3582 18.2256 11.8308C17.4362 11.3033 16.5082 11.0218 15.5588 11.0218C14.287 11.0258 13.0684 11.5327 12.1691 12.4321C11.2698 13.3314 10.7628 14.55 10.7588 15.8218V15.8218ZM0.558837 9.22181V22.4218C0.558837 24.6496 1.44383 26.7862 3.01914 28.3615C4.59445 29.9368 6.73102 30.8218 8.95884 30.8218H22.1588C24.3867 30.8218 26.5232 29.9368 28.0985 28.3615C29.6738 26.7862 30.5588 24.6496 30.5588 22.4218V9.22181C30.5588 6.99399 29.6738 4.85742 28.0985 3.28211C26.5232 1.70681 24.3867 0.821808 22.1588 0.821808H8.95884C6.73102 0.821808 4.59445 1.70681 3.01914 3.28211C1.44383 4.85742 0.558837 6.99399 0.558837 9.22181V9.22181ZM8.35884 15.8218C8.35884 14.3978 8.78111 13.0057 9.57226 11.8217C10.3634 10.6377 11.4879 9.71483 12.8035 9.16988C14.1191 8.62493 15.5668 8.48234 16.9635 8.76015C18.3602 9.03797 19.6431 9.7237 20.65 10.7306C21.6569 11.7376 22.3427 13.0205 22.6205 14.4172C22.8983 15.8138 22.7557 17.2615 22.2108 18.5771C21.6658 19.8928 20.743 21.0172 19.5589 21.8084C18.3749 22.5995 16.9829 23.0218 15.5588 23.0218C13.6493 23.0218 11.8179 22.2632 10.4677 20.913C9.11741 19.5627 8.35884 17.7314 8.35884 15.8218ZM5.95884 8.02181C5.95884 7.6658 6.06441 7.31779 6.26219 7.02178C6.45998 6.72577 6.7411 6.49506 7.07001 6.35882C7.39891 6.22259 7.76083 6.18694 8.11 6.25639C8.45916 6.32585 8.77989 6.49728 9.03163 6.74902C9.28336 7.00075 9.4548 7.32148 9.52425 7.67065C9.5937 8.01981 9.55806 8.38173 9.42182 8.71064C9.28558 9.03955 9.05487 9.32067 8.75886 9.51845C8.46285 9.71624 8.11484 9.82181 7.75884 9.82181C7.28145 9.82181 6.82361 9.63217 6.48605 9.2946C6.14848 8.95704 5.95884 8.4992 5.95884 8.02181Z" fill="white"/>
</svg>
